<?xml version="1.0" standalone="no"?>
<!DOCTYPE svg PUBLIC "-//W3C//DTD SVG 20010904//EN"
 "http://www.w3.org/TR/2001/REC-SVG-20010904/DTD/svg10.dtd">
<svg version="1.0" xmlns="http://www.w3.org/2000/svg"
 width="200.000000pt" height="200.000000pt" viewBox="0 0 200.000000 200.000000"
 preserveAspectRatio="xMidYMid meet">

<g transform="translate(0.000000,200.000000) scale(0.100000,-0.100000)"
fill="#000000" stroke="none">
<path d="M165 1469 c-2 -3 -3 -14 -1 -25 3 -19 20 -19 864 -22 l862 -2 0 -349
0 -349 30 -4 30 -5 0 381 0 381 -891 0 c-490 0 -892 -3 -894 -6z"/>
<path d="M20 965 l0 -395 905 0 905 0 0 395 0 395 -905 0 -905 0 0 -395z
m1750 -2 l0 -338 -845 0 -845 0 0 338 0 337 845 0 845 0 0 -337z"/>
<path d="M134 1225 c-14 -37 2 -45 91 -45 l85 0 0 30 0 30 -85 0 c-67 0 -87
-3 -91 -15z"/>
<path d="M1540 1210 l0 -31 73 3 c69 3 72 4 72 28 0 24 -3 25 -72 28 l-73 3 0
-31z"/>
<path d="M814 1164 c-26 -15 -51 -43 -70 -77 -25 -45 -29 -62 -29 -132 0 -69
4 -87 28 -130 46 -80 78 -100 162 -100 62 0 74 3 107 28 22 17 49 53 65 85 56
113 28 247 -66 320 -37 28 -50 32 -99 32 -42 -1 -68 -7 -98 -26z m142 -43 c33
-15 47 -30 69 -75 23 -47 27 -65 22 -106 -13 -106 -79 -179 -153 -167 -98 16
-155 163 -105 272 19 43 39 63 80 82 35 16 40 15 87 -6z"/>
<path d="M130 715 c0 -25 1 -25 90 -25 89 0 90 0 90 25 0 25 -1 25 -90 25 -89
0 -90 0 -90 -25z"/>
<path d="M1540 715 c0 -24 2 -25 75 -25 73 0 75 1 75 25 0 24 -2 25 -75 25
-73 0 -75 -1 -75 -25z"/>
</g>
</svg>
