<?xml version="1.0" standalone="no"?>
<!DOCTYPE svg PUBLIC "-//W3C//DTD SVG 20010904//EN"
 "http://www.w3.org/TR/2001/REC-SVG-20010904/DTD/svg10.dtd">
<svg version="1.0" xmlns="http://www.w3.org/2000/svg"
 width="200.000000pt" height="200.000000pt" viewBox="0 0 200.000000 200.000000"
 preserveAspectRatio="xMidYMid meet">

<g transform="translate(0.000000,200.000000) scale(0.100000,-0.100000)"
fill="#000000" stroke="none">
<path d="M839 1961 c-64 -25 -131 -72 -241 -166 -160 -138 -259 -238 -305
-308 -35 -53 -48 -67 -63 -62 -33 10 -59 -16 -70 -70 -25 -126 -40 -372 -40
-656 l0 -296 -25 -37 c-52 -77 -69 -120 -69 -178 -1 -69 20 -103 87 -136 57
-29 180 -40 264 -24 94 19 422 42 586 42 152 0 357 -11 602 -32 240 -20 296
-21 334 -1 54 28 74 64 79 138 5 79 -14 123 -93 214 l-56 63 2 397 c2 450 -2
523 -37 558 -26 25 -45 29 -76 12 -18 -10 -46 14 -282 249 -302 302 -305 304
-456 309 -75 3 -105 -1 -141 -16z m230 -77 c44 -15 79 -45 297 -260 l247 -242
-44 -14 c-72 -22 -729 -13 -924 12 -82 11 -185 20 -227 20 -43 0 -78 3 -78 8
0 26 120 157 241 263 160 141 231 193 286 214 52 19 140 18 202 -1z m-659
-564 c74 -5 187 -16 250 -24 71 -9 250 -17 465 -21 309 -6 359 -5 430 10 44
10 98 20 120 22 22 3 45 9 51 14 21 17 27 -97 25 -478 -1 -204 1 -388 5 -408
4 -24 24 -56 59 -93 64 -70 85 -109 85 -161 0 -31 -6 -44 -27 -61 -31 -24 -36
-24 -278 -1 -406 39 -912 39 -1155 0 -94 -15 -239 -15 -283 0 -70 24 -71 72
-3 186 l41 69 7 366 c5 321 12 440 34 568 4 27 9 32 22 27 9 -4 78 -11 152
-15z"/>
<path d="M894 1780 c-30 -12 -38 -39 -18 -61 31 -35 94 -17 94 27 0 17 -8 27
-26 34 -14 6 -26 10 -27 9 -1 0 -11 -4 -23 -9z"/>
<path d="M668 1539 c-44 -25 -4 -88 48 -75 37 10 49 41 24 66 -22 22 -45 25
-72 9z"/>
<path d="M1140 1485 c-17 -20 -3 -54 26 -61 52 -13 95 31 62 64 -17 17 -73 15
-88 -3z"/>
</g>
</svg>
