<?xml version="1.0" standalone="no"?>
<!DOCTYPE svg PUBLIC "-//W3C//DTD SVG 20010904//EN"
 "http://www.w3.org/TR/2001/REC-SVG-20010904/DTD/svg10.dtd">
<svg version="1.0" xmlns="http://www.w3.org/2000/svg"
 width="200.000000pt" height="200.000000pt" viewBox="0 0 200.000000 200.000000"
 preserveAspectRatio="xMidYMid meet">

<g transform="translate(0.000000,200.000000) scale(0.100000,-0.100000)"
fill="#000000" stroke="none">
<path d="M29 1945 c-6 -5 0 -1877 6 -1883 2 -2 237 -8 522 -12 553 -10 1143
-26 1309 -35 l102 -6 7 388 c8 387 0 1421 -11 1500 l-6 42 -106 4 c-167 5
-1818 8 -1823 2z m1583 -32 l316 -6 6 -29 c9 -45 20 -1066 12 -1128 l-7 -55
-283 0 -282 0 18 47 c23 62 48 205 48 279 0 58 0 59 36 74 94 39 155 123 173
235 10 60 3 162 -12 176 -12 12 -110 -52 -152 -98 -45 -50 -85 -145 -85 -202
l0 -31 -45 52 c-63 72 -137 107 -227 107 -37 0 -72 -4 -78 -10 -14 -14 32
-105 82 -160 60 -65 124 -94 212 -94 l69 0 -7 -82 c-8 -111 -30 -208 -60 -274
-14 -29 -21 -56 -16 -59 4 -3 50 -1 102 5 105 11 389 12 458 2 38 -6 45 -11
48 -32 l3 -25 -153 -1 c-168 -1 -221 -10 -538 -89 -190 -48 -330 -70 -394 -63
-23 3 -106 30 -186 61 -215 82 -367 121 -552 142 -57 6 -58 7 -58 37 l0 31
178 -6 c97 -4 222 -14 276 -22 55 -8 102 -13 104 -10 3 3 -7 40 -21 83 -36
103 -57 204 -57 277 0 92 5 102 59 115 64 15 144 63 176 104 39 51 65 128 65
192 0 53 -1 55 -22 48 -92 -28 -189 -104 -236 -183 l-27 -46 -7 56 c-9 76 -39
158 -78 214 -31 45 -109 105 -137 105 -21 0 -47 -108 -46 -200 0 -98 20 -154
74 -209 31 -31 119 -81 145 -81 7 0 9 -27 6 -81 -5 -92 9 -190 44 -292 l24
-70 -43 8 c-90 15 -228 24 -349 25 l-126 0 -4 578 c-2 317 -2 580 0 585 4 9
1124 9 1554 0z m-1211 -340 c72 -66 119 -189 119 -316 0 -66 -1 -68 -22 -62
-73 22 -143 85 -168 150 -24 63 -8 265 21 265 5 0 27 -17 50 -37z m393 -212
c-9 -24 -35 -64 -56 -87 -40 -43 -125 -88 -158 -82 -18 3 -18 6 5 62 32 78 88
143 161 183 l59 33 3 -32 c2 -17 -4 -52 -14 -77z m824 -1 c-5 -80 -23 -126
-67 -173 -25 -28 -90 -67 -111 -67 -17 0 -11 107 10 161 27 73 65 124 119 160
55 36 56 34 49 -81z m-365 -88 c33 -18 65 -47 94 -86 60 -81 58 -90 -20 -84
-103 9 -177 60 -227 158 -18 36 -19 39 -2 43 38 9 108 -5 155 -31z m-978 -674
c140 -25 290 -75 569 -190 443 -182 657 -235 973 -241 l123 -2 0 -47 c0 -43
-2 -48 -27 -54 -44 -11 -310 14 -428 41 -198 45 -234 57 -775 257 -235 87
-493 139 -607 122 l-43 -6 0 69 c0 38 3 73 6 76 8 8 71 1 209 -25z m1619 -24
l46 -7 0 -56 0 -56 -132 3 c-161 4 -243 -7 -430 -59 -79 -21 -173 -44 -209
-50 -64 -10 -70 -9 -160 26 -51 20 -95 37 -96 39 -2 2 37 8 86 15 49 6 189 36
311 67 294 74 456 95 584 78z m-1553 -139 c125 -21 230 -54 511 -159 278 -104
469 -167 593 -197 l80 -19 -195 6 c-272 8 -342 23 -622 136 -199 80 -309 107
-495 120 l-153 12 0 58 0 58 99 0 c54 0 136 -7 182 -15z m1568 -11 c29 -6 31
-9 31 -52 l0 -45 -67 7 c-83 8 -230 -6 -349 -34 -146 -34 -192 -36 -275 -10
l-74 23 40 9 c22 6 94 25 160 44 66 18 156 40 200 48 83 15 280 21 334 10z
m31 -175 l0 -49 -119 0 c-117 0 -327 22 -372 38 -17 7 2 14 87 32 116 25 252
37 347 32 l57 -4 0 -49z m-1575 25 c107 -17 175 -39 350 -109 72 -29 148 -58
170 -65 22 -7 43 -15 47 -19 4 -3 -86 -5 -200 -3 l-207 3 -90 39 c-111 48
-214 77 -305 86 l-70 7 0 37 c0 21 6 41 13 44 19 8 191 -4 292 -20z m-110
-124 c70 -19 171 -58 164 -63 -2 -2 -84 -1 -181 1 l-178 4 0 45 0 45 63 -7
c34 -3 94 -15 132 -25z"/>
<path d="M676 681 c-9 -15 23 -36 36 -23 5 5 7 15 4 21 -9 13 -33 14 -40 2z"/>
<path d="M1207 664 c-14 -15 -6 -34 14 -34 14 0 19 5 17 17 -3 18 -20 27 -31
17z"/>
<path d="M797 644 c-14 -14 -7 -35 11 -32 9 2 17 10 17 17 0 16 -18 25 -28 15z"/>
<path d="M1071 631 c-15 -10 -8 -41 9 -41 15 0 25 29 14 40 -5 5 -15 5 -23 1z"/>
<path d="M916 601 c-9 -15 23 -36 36 -23 5 5 7 15 4 21 -9 13 -33 14 -40 2z"/>
</g>
</svg>
