<?xml version="1.0" standalone="no"?>
<!DOCTYPE svg PUBLIC "-//W3C//DTD SVG 20010904//EN"
 "http://www.w3.org/TR/2001/REC-SVG-20010904/DTD/svg10.dtd">
<svg version="1.0" xmlns="http://www.w3.org/2000/svg"
 width="200.000000pt" height="200.000000pt" viewBox="0 0 200.000000 200.000000"
 preserveAspectRatio="xMidYMid meet">

<g transform="translate(0.000000,200.000000) scale(0.100000,-0.100000)"
fill="#000000" stroke="none">
<path d="M1805 1730 l-137 -110 -815 0 c-542 0 -821 -3 -834 -10 -41 -23 -26
-67 123 -352 78 -150 176 -340 219 -423 50 -97 86 -154 101 -162 17 -10 136
-13 476 -13 248 0 452 -3 452 -6 0 -3 -5 -24 -11 -47 -10 -41 -13 -43 -62 -55
-74 -17 -125 -57 -161 -124 l-31 -58 -307 0 -306 0 -11 32 c-40 114 -176 182
-298 147 -65 -17 -147 -98 -163 -160 -32 -117 19 -236 125 -292 62 -33 165
-31 226 5 50 29 94 80 111 128 l10 30 307 0 307 0 18 -41 c41 -93 147 -156
245 -147 129 13 221 114 221 243 0 79 -25 131 -88 185 -47 40 -49 45 -41 74 8
27 90 342 214 821 39 147 27 133 212 278 86 67 92 74 93 109 0 36 -19 58 -48
58 -5 0 -71 -49 -147 -110z m-200 -249 c-3 -17 -46 -182 -94 -368 l-88 -338
-451 -3 -451 -2 -14 22 c-22 34 -367 705 -367 712 0 3 331 6 736 6 l736 0 -7
-29z m-1267 -1047 c47 -28 67 -64 67 -121 0 -47 -4 -56 -36 -89 -65 -65 -164
-56 -209 19 -24 39 -26 97 -5 138 32 61 125 88 183 53z m1093 1 c66 -35 92
-143 48 -199 -54 -68 -149 -74 -206 -13 -42 46 -51 94 -27 144 36 72 118 102
185 68z"/>
</g>
</svg>
